<svg xmlns="http://www.w3.org/2000/svg" width="128" height="128" viewBox="0 0 128 128">
  <g fill="none" fill-rule="evenodd">
    <path fill="#46B8FC" d="M78.92 94.92l29.076 29.076S111.3 128 118 128h10L80 80l-9-9v57h6c4.25 0 5-3.644 5-7V98zM48 96l-27.996 27.996S16.7 128 10 128H0l47-47 8-8v55h-6c-4.25 0-5-3.644-5-7v-21zm30.92-62.92l29.076-29.076S111.3 0 118 0h10L80 48l-9 9V0h6c4.25 0 5 3.644 5 7v23zM48 32L20.004 4.004S16.7 0 10 0H0l47 47 8 8V0h-6c-4.25 0-5 3.644-5 7v21z"/>
    <path fill="#46D7FC" d="M87 64l41-41v9c0 7.867-5 12-5 12l-20 20H87zm-46 0L0 23v9c0 7.867 5 12 5 12l20 20h16zm46 0l41 41v-9c0-7.867-5-12-5-12l-20-20H87zm-46 0L0 105v-9c0-7.867 5-12 5-12l20-20h16z"/>
  </g>
</svg>
