<svg xmlns="http://www.w3.org/2000/svg" width="339" height="275" viewBox="0 0 339 275">
  <g fill="none" fill-rule="evenodd">
    <path fill="#46B8FC" d="M184.92 94.92l29.076 29.076S217.3 128 224 128h10l-48-48-9-9v57h6c4.25 0 5-3.644 5-7V98zM154 96l-27.996 27.996S122.7 128 116 128h-10l47-47 8-8v55h-6c-4.25 0-5-3.644-5-7v-21zm30.92-62.92l29.076-29.076S217.3 0 224 0h10l-48 48-9 9V0h6c4.25 0 5 3.644 5 7v23zM154 32L126.004 4.004S122.7 0 116 0h-10l47 47 8 8V0h-6c-4.25 0-5 3.644-5 7v21z"/>
    <path fill="#46D7FC" d="M193 64l41-41v9c0 7.867-5 12-5 12l-20 20h-16zm-46 0l-41-41v9c0 7.867 5 12 5 12l20 20h16zm46 0l41 41v-9c0-7.867-5-12-5-12l-20-20h-16zm-46 0l-41 41v-9c0-7.867 5-12 5-12l20-20h16z"/>
    <path fill="#DEDEDE" d="M10.535 263.61v-32.673c0-1.21 1.065-2.285 2.263-2.285h3.993c3.062 0 4.393-1.345 5.06-2.555.398-.807 1.995-4.706 3.06-7.126H10.535v-27.965c0-1.345.932-2.286 2.263-2.286h7.72c3.06 0 4.525-1.48 5.057-2.69l3.195-6.992H3.88c-1.597 0-2.794 1.21-2.928 2.69v91.428h21.296c3.06 0 4.525-1.345 5.19-2.555.4-.805 1.997-4.57 3.062-6.99H10.535zm58.86 9.546H58.346l14.773-49.882-12.51-44.236h7.453c.4 0 2.795 0 3.727 3.227l6.787 25.01 6.39-25.01c.93-3.227 3.326-3.227 3.726-3.227h7.453l-11.98 44.37 13.843 49.748H87.627l-8.65-34.15-9.584 34.15zm68.567-95.06c-6.654 0-11.978 5.38-11.978 11.968v72.2c.133 6.455 5.457 11.833 11.978 11.833h7.32c6.39-.27 11.447-5.378 11.58-11.832v-72.2c0-6.455-5.19-11.7-11.58-11.968h-7.32zm2.662 87.53c-2.795-.134-5.057-2.42-5.057-5.243V191.81c0-2.822 2.262-5.108 5.057-5.242h1.464c2.795 0 5.058 2.285 5.058 5.243v68.573c0 2.958-2.263 5.244-5.058 5.244h-1.464zm46.738-86.588v94.118h18.5c6.522 0 11.712-5.244 11.845-11.832V190.87c-.133-6.588-5.323-11.832-11.845-11.832h-18.5zm20.896 79.597c0 3.63-2.396 4.975-5.058 4.975h-6.256v-74.89h6.256c2.662 0 5.058 1.344 5.058 4.84v65.075zm70.694-79.597h-9.583v81.345c0 2.823-2.264 5.11-5.06 5.11h-1.463c-2.795 0-4.924-2.287-4.924-5.11v-81.345h-6.788c-1.464 0-2.662 1.21-2.795 2.69v80.403c0 6.59 5.324 11.564 11.845 11.564h7.32v-.135c6.256-.135 11.447-4.975 11.447-11.43V179.04zm56.85 20.437c1.198-.672 2.662-2.15 2.662-5.243v-3.63c0-6.454-5.19-12.37-11.58-12.505h-5.988c-6.655 0-11.98 5.916-11.98 12.504v9.682s-.398 6.32 4.26 14.924l11.447 21.647s4.125 7.26 4.125 12.774v10.756c0 2.958-2.262 5.244-5.057 5.244-2.794 0-5.057-2.286-5.057-5.11v-16.403c-2.396 1.076-6.255 2.823-7.054 3.092-1.2.673-2.663 2.152-2.663 5.244v9.68c.133 6.455 5.19 11.698 11.58 11.967h5.99c6.654 0 11.977-5.378 11.977-11.966v-11.966s.4-6.32-4.26-14.924l-11.445-21.78s-4.127-7.128-4.127-12.64v-9.01c0-2.957 2.263-5.242 5.058-5.242 2.796 0 5.058 2.285 5.058 5.243v10.892c2.53-1.075 6.256-2.823 7.055-3.227z"/>
  </g>
</svg>
