<?xml version="1.0" encoding="UTF-8"?>
<svg width="214px" height="274px" viewBox="0 0 214 274" version="1.1" xmlns="http://www.w3.org/2000/svg" xmlns:xlink="http://www.w3.org/1999/xlink">
    <!-- Generator: Sketch 46.2 (44496) - http://www.bohemiancoding.com/sketch -->
    <title>exodus-logo-tall-sm</title>
    <desc>Created with Sketch.</desc>
    <defs></defs>
    <g id="Page-1" stroke="none" stroke-width="1" fill="none" fill-rule="evenodd">
        <g id="exodus-logo-tall-sm">
            <path d="M121.92,94.92 L150.996,123.996 C150.996,123.996 154.3,128 161,128 L171,128 L123,80 L114,71 L114,128 L120,128 C124.25,128 125,124.356 125,121 L125,98 L121.92,94.92 Z M91,96 L63.004,123.996 C63.004,123.996 59.7,128 53,128 L43,128 L90,81 L98,73 L98,128 L92,128 C87.75,128 87,124.356 87,121 L87,100 L91,96 Z M121.92,33.08 L150.996,4.004 C150.996,4.004 154.3,0 161,0 L171,0 L123,48 L114,57 L114,0 L120,0 C124.25,0 125,3.644 125,7 L125,30 L121.92,33.08 Z M91,32 L63.004,4.004 C63.004,4.004 59.7,0 53,0 L43,0 L90,47 L98,55 L98,0 L92,0 C87.75,0 87,3.644 87,7 L87,28 L91,32 Z" id="Shape" fill="#C8283E" fill-rule="nonzero"></path>
            <path d="M130,64 L171,23 L171,32 C171,39.867 166,44 166,44 L146,64 L130,64 Z M84,64 L43,23 L43,32 C43,39.867 48,44 48,44 L68,64 L84,64 Z M130,64 L171,105 L171,96 C171,88.133 166,84 166,84 L146,64 L130,64 Z M84,64 L43,105 L43,96 C43,88.133 48,84 48,84 L68,64 L84,64 Z" id="Shape" fill="#EC4339" fill-rule="nonzero"></path>
            <path d="M9.75085714,264.184571 L9.75085714,231.275429 C9.75085714,230.056571 10.8342857,228.973143 12.0531429,228.973143 L16.116,228.973143 C19.2308571,228.973143 20.5851429,227.618857 21.2622857,226.4 C21.6685714,225.587429 23.2937143,221.66 24.3771429,219.222286 L9.75085714,219.222286 L9.75085714,191.053143 C9.75085714,189.698857 10.6988571,188.750857 12.0531429,188.750857 L19.908,188.750857 C23.0228571,188.750857 24.5125714,187.261143 25.0542857,186.042286 L28.3045714,179 L2.97942857,179 C1.35428571,179 0.135428571,180.218857 0,181.708571 L0,273.8 L21.6685714,273.8 C24.7834286,273.8 26.2731429,272.445714 26.9502857,271.226857 C27.3565714,270.414286 28.9817143,266.622286 30.0651429,264.184571 L9.75085714,264.184571 Z M57.9784744,179 L76.8030458,179 C83.4390458,179 88.7207601,184.281714 88.8561887,190.917714 L88.8561887,261.882286 C88.7207601,268.518286 83.4390458,273.8 76.8030458,273.8 L57.9784744,273.8 L57.9784744,179 Z M79.2407601,259.173714 L79.2407601,193.626286 C79.2407601,190.105143 76.8030458,188.750857 74.0944744,188.750857 L67.7293315,188.750857 L67.7293315,264.184571 L74.0944744,264.184571 C76.8030458,264.184571 79.2407601,262.830286 79.2407601,259.173714 Z M134.646092,264.184571 L134.646092,231.275429 C134.646092,230.056571 135.72952,228.973143 136.948377,228.973143 L141.011235,228.973143 C144.126092,228.973143 145.480377,227.618857 146.15752,226.4 C146.563806,225.587429 148.188949,221.66 149.272377,219.222286 L134.646092,219.222286 L134.646092,191.053143 C134.646092,189.698857 135.594092,188.750857 136.948377,188.750857 L144.803235,188.750857 C147.918092,188.750857 149.407806,187.261143 149.94952,186.042286 L153.199806,179 L127.874663,179 C126.24952,179 125.030663,180.218857 124.895235,181.708571 L124.895235,273.8 L146.563806,273.8 C149.678663,273.8 151.168377,272.445714 151.84552,271.226857 C152.251806,270.414286 153.876949,266.622286 154.960377,264.184571 L134.646092,264.184571 Z M213.886852,179 L204.135995,179 L204.135995,233.577714 L194.11428,184.281714 C193.572566,181.573143 192.624566,179 187.207423,179 L182.73828,179 L182.73828,273.8 L192.489137,273.8 L192.489137,220.847429 L202.917137,267.705714 C203.323423,269.601714 204.135995,273.8 209.417709,273.8 L213.886852,273.8 L213.886852,179 Z" id="EDEN" fill="#DEDEDE"></path>
        </g>
    </g>
</svg>