<svg xmlns="http://www.w3.org/2000/svg" width="32" height="32" viewBox="0 0 32 32">
  <path fill="#FFF" fill-rule="evenodd" d="M28 27h-2.142c-.445-1.722-1.996-3-3.858-3H10c-1.862 0-3.413 1.278-3.858 3H4c-1.104 0-2-.896-2-2v-5c0-1.104.896-2 2-2h24c1.104 0 2 .896 2 2v5c0 1.104-.896 2-2 2zm-18 3c-1.104 0-2-.896-2-2s.896-2 2-2h12c1.104 0 2 .896 2 2s-.896 2-2 2H10zm0-28h12c1.104 0 2 .896 2 2v12H8V4c0-1.104.896-2 2-2zm16 14V4c0-2.21-1.79-4-4-4H10C7.79 0 6 1.79 6 4v12H4c-2.21 0-4 1.79-4 4v5c0 2.21 1.79 4 4 4h2.142c.445 1.723 1.996 3 3.858 3h12c1.862 0 3.413-1.277 3.858-3H28c2.21 0 4-1.79 4-4v-5c0-2.21-1.79-4-4-4h-2z"/>
</svg>
