<svg xmlns="http://www.w3.org/2000/svg" width="32" height="32" viewBox="0 0 32 32"><path fill="#FFF" fill-rule="evenodd" d="M31 20H21c-.552 0-1 .45-1 1s.448 1 1 1h7.635c-2.25 4.73-7.053 8-12.635 8-7.05 0-12.868-5.22-13.84-12H.137C1.125 25.89 7.842 32 16 32c6.028 0 11.272-3.34 14-8.26V31c0 .55.448 1 1 1s1-.45 1-1V21c0-1.06-1-1-1-1zM1 12h10c.552 0 1-.45 1-1s-.448-1-1-1H3.36C5.605 5.27 10.416 2 16 2c7.05 0 12.868 5.22 13.84 12h2.022C30.875 6.11 24.158 0 16 0 9.972 0 4.728 3.34 2 8.26V1c0-.55-.448-1-1-1S0 .45 0 1v10c0 .97 1 1 1 1z"/></svg>
