<svg xmlns="http://www.w3.org/2000/svg" width="32" height="32" viewBox="0 0 32 32"><g fill="#FFF" fill-rule="evenodd"><path d="M22 18h-8l1 1V8c0-.552-.448-1-1-1s-1 .448-1 1v12h9c.552 0 1-.448 1-1s-.448-1-1-1zM22 11V1l-1 1h10c.552 0 1-.448 1-1s-.448-1-1-1H20v11c0 .552.448 1 1 1s1-.448 1-1z"/><path d="M21.443 2.53C26.585 4.75 30 9.903 30 15.706 30 23.605 23.727 30 16 30S2 23.604 2 15.705C2 9.28 6.187 3.7 12.14 1.96c.53-.155.835-.71.68-1.24-.155-.53-.71-.835-1.24-.68C4.773 2.03 0 8.392 0 15.705 0 24.7 7.16 32 16 32s16-7.3 16-16.295C32 9.1 28.108 3.227 22.235.695c-.507-.22-1.095.015-1.314.522-.218.507.016 1.095.523 1.314z"/></g></svg>
