<?xml version="1.0" encoding="UTF-8"?>
<svg width="549px" height="348px" viewBox="0 0 549 348" version="1.1" xmlns="http://www.w3.org/2000/svg" xmlns:xlink="http://www.w3.org/1999/xlink">
    <!-- Generator: Sketch 45.2 (43514) - http://www.bohemiancoding.com/sketch -->
    <title>ce-logo</title>
    <desc>Created with Sketch.</desc>
    <defs></defs>
    <g id="Page-1" stroke="none" stroke-width="1" fill="none" fill-rule="evenodd">
        <g id="ce-logo" transform="translate(8.000000, 8.000000)">
            <g id="cloud" transform="translate(0.000000, 24.000000)" stroke="#FFFFFF" fill-rule="nonzero" stroke-width="15" fill="#932749">
                <path d="M333.125,0 C283.220793,0 240.246627,25.6872 217.409867,63.2247 C211.716553,62.2920375 205.893111,61.6 199.875,61.6 C156.216887,61.6 119.488814,87.6481375 105.891068,123.741887 C103.906893,123.621575 101.98726,123.2 99.9375,123.2 C44.7636719,123.2 0,164.5875 0,215.6 C0,266.6125 44.7636719,308 99.9375,308 L433.0625,308 C488.236328,308 533,266.6125 533,215.6 C533,175.234675 504.826994,141.246875 465.788908,128.673738 C465.854492,126.809375 466.375,125.065325 466.375,123.2 C466.375,55.1637625 406.712312,0 333.125,0 L333.125,0 Z" id="Shape-Copy" transform="translate(266.500000, 154.000000) scale(-1, 1) translate(-266.500000, -154.000000) "></path>
            </g>
            <path d="M222.375,0 C191.758348,0 165.393334,17.0136 151.382789,41.8761 C147.889893,41.2583625 144.317162,40.8 140.625,40.8 C113.840379,40.8 91.3073965,58.0526625 82.9650645,81.9589125 C81.7477559,81.879225 80.5700449,81.6 79.3125,81.6 C45.4628906,81.6 18,109.0125 18,142.8 C18,176.5875 45.4628906,204 79.3125,204 L283.6875,204 C317.537109,204 345,176.5875 345,142.8 C345,116.064525 327.715623,93.553125 303.765428,85.2254625 C303.805664,83.990625 304.125,82.835475 304.125,81.6 C304.125,36.5370375 267.521437,0 222.375,0 L222.375,0 Z" id="Shape" stroke="#FFFFFF" stroke-width="15" fill="#247D8A" fill-rule="nonzero"></path>
            <path d="M110.03,155.26 C109.849999,158.140014 109.280005,160.794988 108.32,163.225 C107.359995,165.655012 106.100008,167.754991 104.54,169.525 C102.979992,171.295009 101.15001,172.674995 99.05,173.665 C96.9499895,174.655005 94.6400126,175.15 92.12,175.15 C89.0599847,175.15 86.1650136,174.220009 83.435,172.36 C80.7049863,170.499991 78.3050104,168.085015 76.235,165.115 C74.1649896,162.144985 72.5150062,158.815018 71.285,155.125 C70.0549939,151.434982 69.44,147.730019 69.44,144.01 C69.44,137.589968 69.9799946,131.695027 71.06,126.325 C72.1400054,120.954973 73.7149897,116.335019 75.785,112.465 C77.8550104,108.594981 80.3449854,105.595011 83.255,103.465 C86.1650145,101.334989 89.4799814,100.27 93.2,100.27 C95.000009,100.27 96.8299907,100.839994 98.69,101.98 C100.550009,103.120006 102.244992,104.559991 103.775,106.3 C105.305008,108.040009 106.564995,109.94499 107.555,112.015 C108.545005,114.08501 109.04,116.049991 109.04,117.91 C109.04,125.470038 105.620034,129.25 98.78,129.25 C97.9999961,129.25 97.2650034,129.010002 96.575,128.53 C95.8849965,128.049998 95.3000024,127.420004 94.82,126.64 C94.3399976,125.859996 93.9500015,125.005005 93.65,124.075 C93.3499985,123.144995 93.2,122.230005 93.2,121.33 C93.2,116.529976 95.8399736,114.13 101.12,114.13 C101.12,112.20999 100.595005,110.815004 99.545,109.945 C98.4949947,109.074996 96.7100126,108.64 94.19,108.64 C92.2699904,108.64 90.5300078,109.374993 88.97,110.845 C87.4099922,112.315007 86.0900054,114.369987 85.01,117.01 C83.9299946,119.650013 83.090003,122.769982 82.49,126.37 C81.889997,129.970018 81.59,133.899979 81.59,138.16 C81.59,141.520017 81.9049969,144.774984 82.535,147.925 C83.1650032,151.075016 84.0199946,153.894988 85.1,156.385 C86.1800054,158.875012 87.4849923,160.869993 89.015,162.37 C90.5450077,163.870007 92.209991,164.62 94.01,164.62 C95.810009,164.62 97.5499916,163.840008 99.23,162.28 C100.910008,160.719992 102.469993,157.810021 103.91,153.55 C105.470008,154.270004 107.509987,154.839998 110.03,155.26 Z M136.49,167.05 C136.55,167.410002 136.595,167.754998 136.625,168.085 C136.655,168.415002 136.67,168.759998 136.67,169.12 C136.67,169.540002 136.655,169.959998 136.625,170.38 C136.595,170.800002 136.55,171.219998 136.49,171.64 C134.56999,171.519999 132.63501,171.43 130.685,171.37 C128.73499,171.31 126.80001,171.28 124.88,171.28 C123.139991,171.28 121.385009,171.31 119.615,171.37 C117.844991,171.43 116.090009,171.519999 114.35,171.64 C114.29,171.159998 114.245,170.710002 114.215,170.29 C114.185,169.869998 114.17,169.420002 114.17,168.94 C114.17,168.579998 114.185,168.205002 114.215,167.815 C114.245,167.424998 114.29,167.050002 114.35,166.69 C117.050013,166.149997 118.789996,165.520004 119.57,164.8 C120.350004,164.079996 120.74,163.360004 120.74,162.64 C120.860001,160.299988 120.95,157.960012 121.01,155.62 C121.07,153.279988 121.1,150.970011 121.1,148.69 C121.1,146.58999 121.07,144.475011 121.01,142.345 C120.95,140.214989 120.860001,138.10001 120.74,136 C120.619999,134.439992 120.080005,133.255004 119.12,132.445 C118.159995,131.634996 117.020007,131.23 115.7,131.23 C115.7,130.629997 115.67,130.015003 115.61,129.385 C115.55,128.754997 115.400001,128.200002 115.16,127.72 C117.08001,127.059997 119.269988,126.385003 121.73,125.695 C124.190012,125.004997 127.069983,124.270004 130.37,123.49 C130.189999,124.990008 130.07,126.474993 130.01,127.945 C129.95,129.415007 129.92,130.989992 129.92,132.67 C130.400002,131.409994 131.014996,130.270005 131.765,129.25 C132.515004,128.229995 133.309996,127.345004 134.15,126.595 C134.990004,125.844996 135.829996,125.275002 136.67,124.885 C137.510004,124.494998 138.289996,124.3 139.01,124.3 C141.950015,124.3 144.199992,125.27499 145.76,127.225 C147.320008,129.17501 148.1,131.619985 148.1,134.56 C148.1,135.460004 147.965001,136.419995 147.695,137.44 C147.424999,138.460005 147.035003,139.419995 146.525,140.32 C146.014997,141.220005 145.400004,141.954997 144.68,142.525 C143.959996,143.095003 143.150004,143.38 142.25,143.38 C140.14999,143.38 138.335008,142.840005 136.805,141.76 C135.274992,140.679995 134.51,139.090011 134.51,136.99 C134.51,135.549993 134.899996,134.320005 135.68,133.3 C136.460004,132.279995 137.659992,131.77 139.28,131.77 C139.580001,131.77 139.954998,131.859999 140.405,132.04 C140.855002,132.220001 141.169999,132.31 141.35,132.31 L141.35,132.13 C141.35,130.329991 140.270011,129.43 138.11,129.43 C132.769973,129.43 130.1,135.45994 130.1,147.52 C130.1,151.60002 130.13,154.929987 130.19,157.51 C130.25,160.090013 130.444998,162.099993 130.775,163.54 C131.105002,164.980007 131.629996,165.954997 132.35,166.465 C133.070004,166.975003 134.089993,167.23 135.41,167.23 C136.010003,167.23 136.369999,167.170001 136.49,167.05 Z M163.58,124.03 C164.720006,130.510032 166.054992,136.70497 167.585,142.615 C169.115008,148.52503 170.689992,154.389971 172.31,160.21 C177.170024,143.469916 179.6,135.010001 179.6,134.83 C179.6,134.349998 179.450001,133.840003 179.15,133.3 C178.849998,132.759997 178.460002,132.265002 177.98,131.815 C177.499998,131.364998 176.990003,131.005001 176.45,130.735 C175.909997,130.464999 175.370003,130.33 174.83,130.33 C174.77,130.33 174.500002,130.389999 174.02,130.51 L174.02,126.82 C175.700008,126.399998 177.784988,125.830004 180.275,125.11 C182.765012,124.389996 185.719983,123.580005 189.14,122.68 C189.320001,123.340003 189.469999,124.059996 189.59,124.84 C189.710001,125.620004 189.77,126.429996 189.77,127.27 C189.77,127.570002 189.755,127.854999 189.725,128.125 C189.695,128.395001 189.68,128.679999 189.68,128.98 C189.499999,129.520003 189.020004,130.80999 188.24,132.85 C187.459996,134.89001 186.530005,137.304986 185.45,140.095 C184.369995,142.885014 183.200006,145.899984 181.94,149.14 C180.679994,152.380016 179.465006,155.484985 178.295,158.455 C177.124994,161.425015 176.060005,164.109988 175.1,166.51 C174.139995,168.910012 173.450002,170.649995 173.03,171.73 C171.649993,175.030016 170.525004,177.624991 169.655,179.515 C168.784996,181.405009 168.110002,182.679997 167.63,183.34 C164.749986,187.42002 161.27002,189.46 157.19,189.46 C155.20999,189.46 153.470008,188.890006 151.97,187.75 C150.469992,186.609994 149.72,185.08001 149.72,183.16 C149.72,181.779993 150.154996,180.475006 151.025,179.245 C151.895004,178.014994 153.379989,177.4 155.48,177.4 C155.960002,177.4 156.499997,177.489999 157.1,177.67 C157.700003,177.850001 158.254997,178.104998 158.765,178.435 C159.275003,178.765002 159.709998,179.184997 160.07,179.695 C160.430002,180.205003 160.61,180.789997 160.61,181.45 C160.61,182.770007 160.295003,183.804996 159.665,184.555 C159.034997,185.305004 158.300004,185.769999 157.46,185.95 C157.820002,186.130001 158.269997,186.22 158.81,186.22 C159.590004,186.22 160.414996,185.620006 161.285,184.42 C162.155004,183.219994 162.979996,181.825008 163.76,180.235 C164.540004,178.644992 165.184997,177.040008 165.695,175.42 C166.205003,173.799992 166.46,172.540005 166.46,171.64 C166.46,171.279998 166.280002,170.200009 165.92,168.4 C164.539993,162.219969 163.085008,156.640025 161.555,151.66 C160.024992,146.679975 158.810004,142.270019 157.91,138.43 C157.249997,135.789987 156.275006,133.975005 154.985,132.985 C153.694994,131.994995 152.150009,131.440001 150.35,131.32 C150.41,130.899998 150.47,130.360003 150.53,129.7 C150.59,129.039997 150.65,128.260005 150.71,127.36 C152.81001,126.579996 154.909989,125.905003 157.01,125.335 C159.11001,124.764997 161.299989,124.330002 163.58,124.03 Z M192.65,184.06 C194.390009,183.939999 195.739995,183.265006 196.7,182.035 C197.660005,180.804994 198.14,178.930013 198.14,176.41 C198.14,172.44998 198.199999,168.49002 198.32,164.53 C198.440001,160.56998 198.5,156.640019 198.5,152.74 C198.5,150.339988 198.47,147.940012 198.41,145.54 C198.35,143.139988 198.200001,140.96501 197.96,139.015 C197.719999,137.06499 197.330003,135.475006 196.79,134.245 C196.249997,133.014994 195.530004,132.4 194.63,132.4 C194.149998,132.4 193.040009,132.699997 191.3,133.3 C191.36,132.999999 191.39,132.715001 191.39,132.445 L191.39,131.59 C191.39,130.749996 191.300001,129.970004 191.12,129.25 C192.860009,128.469996 194.68999,127.615005 196.61,126.685 C198.53001,125.754995 200.47999,124.750005 202.46,123.67 C202.820002,123.549999 203.149998,123.49 203.45,123.49 C203.630001,123.49 203.809999,123.505 203.99,123.535 C204.170001,123.565 204.379999,123.61 204.62,123.67 C204.62,124.870006 204.65,125.889996 204.71,126.73 C204.77,127.570004 205.009998,128.409996 205.43,129.25 C205.610001,129.19 205.909998,128.905003 206.33,128.395 C206.750002,127.884997 207.304997,127.345003 207.995,126.775 C208.685003,126.204997 209.554995,125.680002 210.605,125.2 C211.655005,124.719998 212.929992,124.48 214.43,124.48 C224.330049,124.48 229.28,133.329912 229.28,151.03 C229.28,153.550013 228.905004,156.084987 228.155,158.635 C227.404996,161.185013 226.385006,163.46499 225.095,165.475 C223.804994,167.48501 222.305009,169.134994 220.595,170.425 C218.884991,171.715006 217.04001,172.36 215.06,172.36 C213.319991,172.36 211.910005,171.865005 210.83,170.875 C209.749995,169.884995 208.850004,168.700007 208.13,167.32 C208.13,167.440001 208.115,167.589999 208.085,167.77 C208.055,167.950001 208.025,168.369997 207.995,169.03 C207.965,169.690003 207.935,170.694993 207.905,172.045 C207.875,173.395007 207.86,175.269988 207.86,177.67 C207.86,179.59001 208.174997,181.089995 208.805,182.17 C209.435003,183.250005 210.829989,183.79 212.99,183.79 C213.170001,183.79 213.364999,183.76 213.575,183.7 C213.785001,183.64 214.039998,183.58 214.34,183.52 C214.039998,184.180003 213.875,184.899996 213.845,185.68 C213.815,186.460004 213.8,187.269996 213.8,188.11 C213.259997,188.11 212.315007,188.155 210.965,188.245 C209.614993,188.335 208.145008,188.439999 206.555,188.56 C204.964992,188.680001 203.435007,188.785 201.965,188.875 C200.494993,188.965 199.370004,189.01 198.59,189.01 C195.229983,189.01 193.250003,188.710003 192.65,188.11 L192.65,184.06 Z M207.32,152.29 C207.32,160.690042 209.209981,164.89 212.99,164.89 C217.370022,164.89 219.56,158.950059 219.56,147.07 C219.56,135.12994 217.370022,129.16 212.99,129.16 C209.209981,129.16 207.32,132.969962 207.32,140.59 L207.32,152.29 Z M247.73,131.77 C247.609999,134.530014 247.55,137.259986 247.55,139.96 L247.55,148.06 C247.55,150.760014 247.58,153.429987 247.64,156.07 C247.7,158.710013 247.73,161.379987 247.73,164.08 C247.73,165.640008 248.269995,166.42 249.35,166.42 C250.310005,166.42 250.879999,166.030004 251.06,165.25 C251.240001,164.469996 251.33,163.600005 251.33,162.64 C251.33,162.159998 251.315,161.740002 251.285,161.38 C251.255,161.019998 251.21,160.600002 251.15,160.12 C251.450001,160.06 251.779998,160.015 252.14,159.985 C252.500002,159.955 252.829998,159.94 253.13,159.94 C253.490002,159.94 253.834998,159.955 254.165,159.985 C254.495002,160.015 254.839998,160.06 255.2,160.12 C255.26,160.540002 255.29,160.929998 255.29,161.29 L255.29,162.46 C255.29,163.660006 255.185001,164.829994 254.975,165.97 C254.764999,167.110006 254.375003,168.144995 253.805,169.075 C253.234997,170.005005 252.485005,170.754997 251.555,171.325 C250.624995,171.895003 249.440007,172.18 248,172.18 C245.719989,172.18 243.905007,171.745004 242.555,170.875 C241.204993,170.004996 240.170004,168.835007 239.45,167.365 C238.729996,165.894993 238.265001,164.15501 238.055,162.145 C237.844999,160.13499 237.74,157.990011 237.74,155.71 C237.74,151.929981 237.77,148.06002 237.83,144.1 C237.89,140.13998 237.979999,136.15002 238.1,132.13 C237.439997,131.889999 236.825003,131.74 236.255,131.68 C235.684997,131.62 235.100003,131.59 234.5,131.59 L233.375,131.59 C232.984998,131.59 232.550002,131.62 232.07,131.68 C232.07,131.559999 232.1,131.260002 232.16,130.78 C232.22,130.299998 232.28,129.790003 232.34,129.25 C232.4,128.709997 232.475,128.230002 232.565,127.81 C232.655,127.389998 232.759999,127.18 232.88,127.18 C234.92001,127.18 236.719992,126.790004 238.28,126.01 C239.840008,125.229996 241.159995,124.150007 242.24,122.77 C243.320005,121.389993 244.144997,119.74001 244.715,117.82 C245.285003,115.89999 245.57,113.770012 245.57,111.43 C246.110003,111.43 246.664997,111.445 247.235,111.475 C247.805003,111.505 248.329998,111.55 248.81,111.61 C248.990001,113.770011 249.08,115.929989 249.08,118.09 C249.08,120.850014 248.990001,123.429988 248.81,125.83 C249.470003,125.950001 250.249995,126.069999 251.15,126.19 C252.050004,126.310001 253.099994,126.489999 254.3,126.73 C254.24,127.210002 254.21,127.674998 254.21,128.125 L254.21,130.645 C254.21,131.035002 254.24,131.409998 254.3,131.77 C253.759997,131.71 253.220003,131.665 252.68,131.635 C252.139997,131.605 251.570003,131.59 250.97,131.59 C250.429997,131.59 249.890003,131.605 249.35,131.635 C248.809997,131.665 248.270003,131.71 247.73,131.77 Z M274.19,173.26 C263.869948,173.26 258.71,163.990093 258.71,145.45 C258.71,142.689986 259.114996,140.005013 259.925,137.395 C260.735004,134.784987 261.844993,132.46001 263.255,130.42 C264.665007,128.37999 266.299991,126.730006 268.16,125.47 C270.020009,124.209994 272.029989,123.58 274.19,123.58 C285.830058,123.58 291.65,131.829917 291.65,148.33 C291.65,152.170019 291.260004,155.619985 290.48,158.68 C289.699996,161.740015 288.560007,164.349989 287.06,166.51 C285.559992,168.670011 283.730011,170.334994 281.57,171.505 C279.409989,172.675006 276.950014,173.26 274.19,173.26 Z M274.55,169.03 C280.130028,169.03 282.92,162.790062 282.92,150.31 C282.92,147.249985 282.740002,144.400013 282.38,141.76 C282.019998,139.119987 281.555003,136.84001 280.985,134.92 C280.414997,132.99999 279.725004,131.485006 278.915,130.375 C278.104996,129.264994 277.250004,128.71 276.35,128.71 C271.069974,128.71 268.43,135.069936 268.43,147.79 C268.43,161.950071 270.46998,169.03 274.55,169.03 Z" id="Crypto" fill="#FFFFFF"></path>
            <path d="M55.27,297.91 C55.0899991,296.949995 55,294.820017 55,291.52 C55.9000045,291.46 56.8599949,291.370001 57.88,291.25 C58.9000051,291.129999 59.8599955,290.890002 60.76,290.53 C61.6600045,290.169998 62.409997,289.675003 63.01,289.045 C63.610003,288.414997 63.91,287.530006 63.91,286.39 C63.91,285.729997 64.0299988,284.020014 64.27,281.26 C64.5100012,278.499986 64.7799985,275.065021 65.08,270.955 C65.3800015,266.844979 65.6499988,262.285025 65.89,257.275 C66.1300012,252.264975 66.25,247.180026 66.25,242.02 C66.25,240.339992 65.650006,239.020005 64.45,238.06 C63.249994,237.099995 61.6000105,236.62 59.5,236.62 C59.6800009,235.359994 59.8149995,234.130006 59.905,232.93 C59.9950004,231.729994 60.04,230.230009 60.04,228.43 C61.1800057,228.189999 62.3949936,227.965001 63.685,227.755 C64.9750064,227.544999 66.714989,227.380001 68.905,227.26 C71.095011,227.139999 73.9149828,227.035 77.365,226.945 C80.8150172,226.855 85.2699727,226.81 90.73,226.81 L99.01,226.81 C98.9499997,227.530004 98.8900003,228.384995 98.83,229.375 C98.7699997,230.365005 98.74,231.81999 98.74,233.74 C98.74,235.060007 98.7549998,236.364994 98.785,237.655 C98.8150002,238.945006 98.8599997,240.219994 98.92,241.48 C97.7799943,241.48 96.5800063,241.554999 95.32,241.705 C94.0599937,241.855001 92.8900054,242.019999 91.81,242.2 C91.1499967,241.719998 90.3250049,240.700008 89.335,239.14 C88.344995,237.579992 87.5800027,235.900009 87.04,234.1 L76.78,234.1 C77.0800015,239.920029 77.3349989,244.989978 77.545,249.31 C77.7550011,253.630022 77.86,257.349984 77.86,260.47 L83.89,260.47 C84.6100036,257.709986 85.1499982,255.160012 85.51,252.82 L91.81,252.82 C90.7299946,259.780035 90.1000009,266.559967 89.92,273.16 L84.34,273.16 C84.2199994,272.679998 84.0850008,271.930005 83.935,270.91 C83.7849992,269.889995 83.5900012,268.510009 83.35,266.77 L77.23,266.77 C77.1099994,269.290013 76.9300012,272.304982 76.69,275.815 C76.4499988,279.325018 76.1200021,283.419977 75.7,288.1 C77.2600078,288.400002 78.7899925,288.624999 80.29,288.775 C81.7900075,288.925001 83.1699937,289 84.43,289 C86.7100114,289 88.2849956,288.175008 89.155,286.525 C90.0250044,284.874992 90.5199994,282.910011 90.64,280.63 L99.73,280.63 C99.73,280.990002 99.7449998,281.409998 99.775,281.89 C99.8050001,282.370002 99.82,283.149995 99.82,284.23 L99.82,296.83 L55.27,297.91 Z M134.92,223.57 C134.799999,228.550025 134.71,233.529975 134.65,238.51 C134.59,243.490025 134.56,248.529974 134.56,253.63 C134.56,259.270028 134.605,264.909972 134.695,270.55 C134.785,276.190028 134.889999,281.919971 135.01,287.74 C135.01,288.460004 135.204998,289.164997 135.595,289.855 C135.985002,290.545003 136.464997,291.159997 137.035,291.7 C137.605003,292.240003 138.234997,292.689998 138.925,293.05 C139.615003,293.410002 140.319996,293.59 141.04,293.59 C141.280001,294.010002 141.4,294.849994 141.4,296.11 C141.4,297.610007 141.025004,298.494999 140.275,298.765 C139.524996,299.035001 138.550006,299.17 137.35,299.17 C135.789992,299.17 134.275007,298.630005 132.805,297.55 C131.334993,296.469995 130.270003,295.150008 129.61,293.59 C126.369984,296.950017 122.620021,298.63 118.36,298.63 C108.459951,298.63 103.51,289.810088 103.51,272.17 C103.51,269.589987 103.884996,267.025013 104.635,264.475 C105.385004,261.924987 106.389994,259.64501 107.65,257.635 C108.910006,255.62499 110.409991,253.990006 112.15,252.73 C113.890009,251.469994 115.74999,250.84 117.73,250.84 C118.270003,250.84 118.719998,250.87 119.08,250.93 C119.440002,250.99 119.844998,251.184998 120.295,251.515 C120.745002,251.845002 121.299997,252.339997 121.96,253 C122.620003,253.660003 123.489995,254.619994 124.57,255.88 C124.810001,255.219997 124.93,249.190057 124.93,237.79 C124.93,233.529979 123.280017,231.4 119.98,231.4 L119.35,231.4 L119.35,230.32 C119.35,229.839998 119.305,229.420002 119.215,229.06 L118.9,227.8 C122.380017,226.899995 125.454987,226.105003 128.125,225.415 C130.795013,224.724997 133.059991,224.110003 134.92,223.57 Z M119.71,293.95 C123.550019,293.95 125.47,290.110038 125.47,282.43 C125.47,281.709996 125.44,280.660007 125.38,279.28 C125.32,277.899993 125.29,276.850004 125.29,276.13 C125.29,275.469997 125.32,274.555006 125.38,273.385 C125.44,272.214994 125.47,271.330003 125.47,270.73 C125.47,262.389958 123.550019,258.22 119.71,258.22 C115.449979,258.22 113.32,264.18994 113.32,276.13 C113.32,288.010059 115.449979,293.95 119.71,293.95 Z M144.54,286.75 C144.179998,283.509984 144,280.300016 144,277.12 C144,275.19999 144.089999,273.28001 144.27,271.36 C144.450001,269.43999 144.54,267.49001 144.54,265.51 C144.54,263.889992 143.940006,262.570005 142.74,261.55 C141.539994,260.529995 140.160008,260.02 138.6,260.02 C138.66,259.599998 138.72,259.060003 138.78,258.4 C138.84,257.739997 138.9,256.930005 138.96,255.97 C141.480013,255.429997 143.924988,254.815003 146.295,254.125 C148.665012,253.434997 150.989989,252.640005 153.27,251.74 C153.149999,257.860031 153.06,263.109978 153,267.49 C152.94,271.870022 152.91,275.439986 152.91,278.2 C152.91,281.380016 153.059999,283.98999 153.36,286.03 C153.660002,288.07001 154.079997,289.674994 154.62,290.845 C155.160003,292.015006 155.834996,292.824998 156.645,293.275 C157.455004,293.725002 158.369995,293.95 159.39,293.95 C163.29002,293.95 165.24,290.110038 165.24,282.43 L165.24,268.93 C165.24,265.389982 164.760005,262.870008 163.8,261.37 C162.839995,259.869993 161.40001,259.12 159.48,259.12 C159.42,258.819998 159.375,258.505002 159.345,258.175 C159.315,257.844998 159.3,257.500002 159.3,257.14 C159.3,256.839998 159.315,256.570001 159.345,256.33 C159.375,256.089999 159.42,255.820001 159.48,255.52 C161.640011,254.859997 163.979987,254.185003 166.5,253.495 C169.020013,252.804997 171.719986,252.070004 174.6,251.29 C174.66,254.950018 174.69,258.219986 174.69,261.1 L174.69,268.84 C174.69,271.900015 174.675,274.344991 174.645,276.175 C174.615,278.005009 174.585,279.489994 174.555,280.63 C174.525,281.770006 174.495,282.684997 174.465,283.375 C174.435,284.065003 174.42,284.829996 174.42,285.67 C174.42,289.810021 176.009984,292.599993 179.19,294.04 C179.19,294.520002 179.175,295.059997 179.145,295.66 C179.115,296.260003 179.025001,296.814997 178.875,297.325 C178.724999,297.835003 178.500001,298.269998 178.2,298.63 C177.899999,298.990002 177.510002,299.17 177.03,299.17 C175.469992,299.17 173.940007,298.630005 172.44,297.55 C170.939993,296.469995 169.890003,295.150008 169.29,293.59 C166.049984,296.950017 162.270022,298.63 157.95,298.63 C156.209991,298.63 154.530008,298.345003 152.91,297.775 C151.289992,297.204997 149.865006,296.410005 148.635,295.39 C147.404994,294.369995 146.415004,293.125007 145.665,291.655 C144.914996,290.184993 144.54,288.550009 144.54,286.75 Z M195.4,257.77 C195.279999,260.530014 195.22,263.259986 195.22,265.96 L195.22,274.06 C195.22,276.760014 195.25,279.429987 195.31,282.07 C195.37,284.710013 195.4,287.379986 195.4,290.08 C195.4,291.640008 195.939995,292.42 197.02,292.42 C197.980005,292.42 198.549999,292.030004 198.73,291.25 C198.910001,290.469996 199,289.600005 199,288.64 C199,288.159998 198.985,287.740002 198.955,287.38 C198.925,287.019998 198.88,286.600002 198.82,286.12 C199.120001,286.06 199.449998,286.015 199.81,285.985 C200.170002,285.955 200.499999,285.94 200.8,285.94 C201.160002,285.94 201.504998,285.955 201.835,285.985 C202.165002,286.015 202.509998,286.06 202.87,286.12 C202.93,286.540002 202.96,286.929998 202.96,287.29 L202.96,288.46 C202.96,289.660006 202.855001,290.829994 202.645,291.97 C202.434999,293.110006 202.045003,294.144995 201.475,295.075 C200.904997,296.005005 200.155005,296.754997 199.225,297.325 C198.294995,297.895003 197.110007,298.18 195.67,298.18 C193.389989,298.18 191.575007,297.745004 190.225,296.875 C188.874993,296.004996 187.840004,294.835007 187.12,293.365 C186.399996,291.894993 185.935001,290.15501 185.725,288.145 C185.514999,286.13499 185.41,283.990011 185.41,281.71 C185.41,277.929981 185.44,274.06002 185.5,270.1 C185.56,266.13998 185.649999,262.15002 185.77,258.13 C185.109997,257.889999 184.495003,257.74 183.925,257.68 C183.354997,257.62 182.770003,257.59 182.17,257.59 L181.045,257.59 C180.654998,257.59 180.220002,257.62 179.74,257.68 C179.74,257.559999 179.77,257.260002 179.83,256.78 C179.89,256.299998 179.95,255.790003 180.01,255.25 C180.07,254.709997 180.145,254.230002 180.235,253.81 C180.325,253.389998 180.429999,253.18 180.55,253.18 C182.59001,253.18 184.389992,252.790004 185.95,252.01 C187.510008,251.229996 188.829995,250.150007 189.91,248.77 C190.990005,247.389993 191.814997,245.74001 192.385,243.82 C192.955003,241.89999 193.24,239.770012 193.24,237.43 C193.780003,237.43 194.334997,237.445 194.905,237.475 C195.475003,237.505 195.999998,237.55 196.48,237.61 C196.660001,239.770011 196.75,241.929989 196.75,244.09 C196.75,246.850014 196.660001,249.429988 196.48,251.83 C197.140003,251.950001 197.919995,252.069999 198.82,252.19 C199.720004,252.310001 200.769994,252.489999 201.97,252.73 C201.91,253.210002 201.88,253.674998 201.88,254.125 L201.88,256.645 C201.88,257.035002 201.91,257.409998 201.97,257.77 C201.429997,257.71 200.890003,257.665 200.35,257.635 C199.809997,257.605 199.240003,257.59 198.64,257.59 C198.099997,257.59 197.560003,257.605 197.02,257.635 C196.479997,257.665 195.940003,257.71 195.4,257.77 Z M228.8,293.59 C225.559984,296.950017 221.780022,298.63 217.46,298.63 C213.49998,298.63 210.335012,297.550011 207.965,295.39 C205.594988,293.229989 204.41,290.230019 204.41,286.39 C204.41,281.529976 205.894985,277.660014 208.865,274.78 C211.835015,271.899986 215.809975,270.46 220.79,270.46 C221.330003,270.46 221.884997,270.475 222.455,270.505 C223.025003,270.535 223.639997,270.58 224.3,270.64 C224.540001,269.499994 224.66,268.060009 224.66,266.32 C224.66,258.459961 221.960027,254.53 216.56,254.53 C214.279989,254.53 212.600005,255.819987 211.52,258.4 C212.420004,257.979998 213.439994,257.77 214.58,257.77 C217.160013,257.77 218.45,259.77998 218.45,263.8 C218.45,264.400003 218.240002,264.999997 217.82,265.6 C217.399998,266.200003 216.875003,266.754997 216.245,267.265 C215.614997,267.775003 214.940004,268.179999 214.22,268.48 C213.499996,268.780002 212.870003,268.93 212.33,268.93 C208.36998,268.93 206.39,266.230027 206.39,260.83 C206.39,257.409983 207.859985,254.800009 210.8,253 C213.740015,251.199991 217.909973,250.3 223.31,250.3 C227.210019,250.3 230.044991,251.994983 231.815,255.385 C233.585009,258.775017 234.47,264.42996 234.47,272.35 C234.47,272.890003 234.455,273.699995 234.425,274.78 C234.395,275.860005 234.38,277.014994 234.38,278.245 C234.38,279.475006 234.365,280.644994 234.335,281.755 C234.305,282.865006 234.29,283.689997 234.29,284.23 C234.29,291.010034 235.399989,294.4 237.62,294.4 C238.340004,294.4 239.149995,294.130003 240.05,293.59 C240.350001,294.190003 240.5,295.059994 240.5,296.2 C240.5,297.700007 240.140004,298.569999 239.42,298.81 C238.699996,299.050001 237.740006,299.17 236.54,299.17 C234.919992,299.17 233.375007,298.630005 231.905,297.55 C230.434993,296.469995 229.400003,295.150008 228.8,293.59 Z M224.21,283.33 C224.21,282.369995 224.225,281.290006 224.255,280.09 C224.285,278.889994 224.33,277.510008 224.39,275.95 C223.789997,275.829999 223.175003,275.725 222.545,275.635 C221.914997,275.545 221.240004,275.5 220.52,275.5 C218.59999,275.5 217.040006,276.339992 215.84,278.02 C214.639994,279.700008 214.04,281.799987 214.04,284.32 C214.04,287.020014 214.744993,289.299991 216.155,291.16 C217.565007,293.020009 219.409989,293.95 221.69,293.95 C222.290003,293.95 222.769998,293.680003 223.13,293.14 C223.490002,292.599997 223.774999,291.985003 223.985,291.295 C224.195001,290.604997 224.33,289.945003 224.39,289.315 C224.45,288.684997 224.48,288.250001 224.48,288.01 C224.48,286.809994 224.435,285.835004 224.345,285.085 C224.255,284.334996 224.21,283.750002 224.21,283.33 Z M252.03,247.06 C251.129996,247.06 250.275004,246.850002 249.465,246.43 C248.654996,246.009998 247.935003,245.440004 247.305,244.72 C246.674997,243.999996 246.180002,243.160005 245.82,242.2 C245.459998,241.239995 245.28,240.220005 245.28,239.14 C245.28,238.299996 245.474998,237.520004 245.865,236.8 C246.255002,236.079996 246.779997,235.450003 247.44,234.91 C248.100003,234.369997 248.834996,233.950001 249.645,233.65 C250.455004,233.349998 251.309996,233.2 252.21,233.2 C254.19001,233.2 255.839993,233.859993 257.16,235.18 C258.480007,236.500007 259.14,238.14999 259.14,240.13 C259.14,241.030005 258.930002,241.899996 258.51,242.74 C258.089998,243.580004 257.535003,244.314997 256.845,244.945 C256.154997,245.575003 255.390004,246.084998 254.55,246.475 C253.709996,246.865002 252.870004,247.06 252.03,247.06 Z M263.73,293.05 C263.67,293.410002 263.625,293.754998 263.595,294.085 C263.565,294.415002 263.55,294.759998 263.55,295.12 C263.55,295.540002 263.565,295.959998 263.595,296.38 C263.625,296.800002 263.67,297.219998 263.73,297.64 C259.589979,297.459999 255.450021,297.37 251.31,297.37 C248.069984,297.37 244.830016,297.459999 241.59,297.64 C241.53,297.159998 241.485,296.710002 241.455,296.29 C241.425,295.869998 241.41,295.420002 241.41,294.94 C241.41,294.579998 241.425,294.205002 241.455,293.815 C241.485,293.424998 241.53,293.050002 241.59,292.69 C241.770001,292.75 242.249996,292.78 243.03,292.78 C246.570018,292.78 248.34,290.230026 248.34,285.13 C248.34,282.609987 248.295,280.34501 248.205,278.335 C248.115,276.32499 248.07,274.180011 248.07,271.9 C248.07,270.399992 248.1,268.870008 248.16,267.31 C248.22,265.749992 248.339999,263.98001 248.52,262 C248.52,260.439992 247.965006,259.255004 246.855,258.445 C245.744994,257.634996 244.440008,257.23 242.94,257.23 C242.94,256.689997 242.925,256.135003 242.895,255.565 C242.865,254.994997 242.730001,254.410003 242.49,253.81 C245.370014,253.209997 248.129987,252.550004 250.77,251.83 C253.410013,251.109996 256.049987,250.330004 258.69,249.49 C258.329998,255.43003 258.060001,261.36997 257.88,267.31 C257.699999,273.25003 257.61,279.339969 257.61,285.58 C257.61,288.100013 257.969996,290.004994 258.69,291.295 C259.410004,292.585006 260.78999,293.23 262.83,293.23 C263.070001,293.23 263.369998,293.170001 263.73,293.05 Z M289.03,297.64 C286.98999,297.58 284.96501,297.535 282.955,297.505 C280.94499,297.475 278.92001,297.46 276.88,297.46 C275.199992,297.46 273.535008,297.475 271.885,297.505 C270.234992,297.535 268.570008,297.58 266.89,297.64 C266.89,297.279998 266.905,296.905002 266.935,296.515 C266.965,296.124998 266.98,295.690002 266.98,295.21 C266.98,294.789998 266.965,294.385002 266.935,293.995 C266.905,293.604998 266.89,293.170002 266.89,292.69 C267.430003,292.63 268.059996,292.555 268.78,292.465 C269.500004,292.375 270.159997,292.180002 270.76,291.88 C271.360003,291.579998 271.869998,291.130003 272.29,290.53 C272.710002,289.929997 272.92,289.060006 272.92,287.92 C272.92,287.559998 272.89,287.035003 272.83,286.345 C272.77,285.654997 272.725,284.935004 272.695,284.185 C272.665,283.434996 272.62,282.715003 272.56,282.025 C272.5,281.334997 272.47,280.810002 272.47,280.45 C272.47,279.429995 272.544999,277.90001 272.695,275.86 C272.845001,273.81999 272.994999,271.735011 273.145,269.605 C273.295001,267.474989 273.444999,265.555009 273.595,263.845 C273.745001,262.134991 273.82,261.130001 273.82,260.83 C273.82,259.989996 273.280005,259.180004 272.2,258.4 C271.119995,257.619996 269.800008,257.23 268.24,257.23 L268.24,256.42 C268.24,255.759997 268.195,255.220002 268.105,254.8 C268.015,254.379998 267.910001,254.020002 267.79,253.72 C269.650009,253.179997 271.944986,252.565003 274.675,251.875 C277.405014,251.184997 280.659981,250.390005 284.44,249.49 C284.38,249.970002 284.305,250.524997 284.215,251.155 C284.125,251.785003 284.08,252.429997 284.08,253.09 C284.08,253.870004 284.169999,254.529997 284.35,255.07 C286.510011,252.249986 288.789988,250.84 291.19,250.84 C292.510007,250.84 293.934992,251.394994 295.465,252.505 C296.995008,253.615006 298.419993,254.994992 299.74,256.645 C301.060007,258.295008 302.169996,260.034991 303.07,261.865 C303.970004,263.695009 304.42,265.329993 304.42,266.77 L304.42,286.48 C304.42,288.040008 304.554999,289.389994 304.825,290.53 C305.095001,291.670006 305.559997,292.24 306.22,292.24 C306.700002,292.24 307.104998,291.955003 307.435,291.385 C307.765002,290.814997 307.93,290.200003 307.93,289.54 C307.93,289.239999 307.9,288.805003 307.84,288.235 C307.78,287.664997 307.75,287.230002 307.75,286.93 L307.75,286.12 C308.350003,286.300001 309.039996,286.39 309.82,286.39 C310.480003,286.39 311.169996,286.300001 311.89,286.12 L311.89,290.08 C311.89,292.240011 311.110008,294.054993 309.55,295.525 C307.989992,296.995007 306.130011,297.73 303.97,297.73 C297.729969,297.73 294.61,294.820029 294.61,289 L294.61,270.64 C294.61,268.959992 294.430002,267.310008 294.07,265.69 C293.709998,264.069992 293.200003,262.645006 292.54,261.415 C291.879997,260.184994 291.100005,259.195004 290.2,258.445 C289.299996,257.694996 288.310005,257.32 287.23,257.32 C286.269995,257.32 285.415004,257.724996 284.665,258.535 C283.914996,259.345004 283.54,260.229995 283.54,261.19 C283.179998,277.570082 283,285.969998 283,286.39 C283,290.950023 284.649983,293.23 287.95,293.23 C288.490003,293.23 288.849999,293.170001 289.03,293.05 C288.97,293.530002 288.94,293.964998 288.94,294.355 L288.94,296.65 C288.94,297.010002 288.97,297.339998 289.03,297.64 Z M313.88,298.09 C313.94,297.669998 313.985,297.250002 314.015,296.83 C314.045,296.409998 314.06,295.960002 314.06,295.48 C314.06,294.999998 314.045,294.535002 314.015,294.085 C313.985,293.634998 313.94,293.170002 313.88,292.69 C314.300002,292.569999 314.854997,292.465 315.545,292.375 C316.235003,292.285 316.909997,292.105001 317.57,291.835 C318.230003,291.564999 318.784998,291.130003 319.235,290.53 C319.685002,289.929997 319.91,289.060006 319.91,287.92 C319.91,287.559998 319.88,287.035003 319.82,286.345 C319.76,285.654997 319.715,284.935004 319.685,284.185 C319.655,283.434996 319.61,282.715003 319.55,282.025 C319.49,281.334997 319.46,280.810002 319.46,280.45 C319.46,279.489995 319.534999,277.99001 319.685,275.95 C319.835001,273.90999 319.984999,271.810011 320.135,269.65 C320.285001,267.489989 320.434999,265.540009 320.585,263.8 C320.735001,262.059991 320.81,261.010002 320.81,260.65 C320.81,259.629995 320.375004,258.820003 319.505,258.22 C318.634996,257.619997 317.24001,257.29 315.32,257.23 C315.32,256.389996 315.275,255.715003 315.185,255.205 C315.095,254.694997 314.990001,254.200002 314.87,253.72 C316.79001,253.059997 319.114986,252.355004 321.845,251.605 C324.575014,250.854996 327.769982,250.150003 331.43,249.49 C331.249999,251.650011 331.16,252.879998 331.16,253.18 C331.16,253.480002 331.175,253.779998 331.205,254.08 C331.235,254.380001 331.28,254.709998 331.34,255.07 C333.500011,252.249986 335.809988,250.84 338.27,250.84 C339.110004,250.84 340.039995,251.079998 341.06,251.56 C342.080005,252.040002 343.039995,252.639996 343.94,253.36 C344.840005,254.080004 345.664996,254.874996 346.415,255.745 C347.165004,256.615004 347.689999,257.439996 347.99,258.22 C349.430007,256.599992 350.629995,255.295005 351.59,254.305 C352.550005,253.314995 353.389996,252.565003 354.11,252.055 C354.830004,251.544997 355.534997,251.215001 356.225,251.065 C356.915003,250.914999 357.739995,250.84 358.7,250.84 C360.080007,250.84 361.519993,251.334995 363.02,252.325 C364.520007,253.315005 365.899994,254.589992 367.16,256.15 C368.420006,257.710008 369.484996,259.434991 370.355,261.325 C371.225004,263.215009 371.719999,265.029991 371.84,266.77 C371.9,267.430003 371.93,268.119996 371.93,268.84 L371.93,271 C371.93,272.800009 371.9,274.67499 371.84,276.625 C371.78,278.57501 371.75,280.56999 371.75,282.61 C371.75,283.690005 371.765,284.799994 371.795,285.94 C371.825,287.080006 371.899999,288.129995 372.02,289.09 C372.140001,290.050005 372.319999,290.859997 372.56,291.52 C372.800001,292.180003 373.099998,292.54 373.46,292.6 C373.880002,292.6 374.224999,292.450001 374.495,292.15 C374.765001,291.849998 374.959999,291.490002 375.08,291.07 C375.200001,290.649998 375.275,290.185003 375.305,289.675 C375.335,289.164997 375.35,288.700002 375.35,288.28 L375.35,287.245 C375.35,286.854998 375.32,286.480002 375.26,286.12 C375.620002,286.240001 375.979998,286.3 376.34,286.3 L378.365,286.3 C378.695002,286.3 379.009998,286.240001 379.31,286.12 L379.31,290.08 C379.31,292.240011 378.545008,294.054993 377.015,295.525 C375.484992,296.995007 373.640011,297.73 371.48,297.73 C369.49999,297.73 367.880006,297.460003 366.62,296.92 C365.359994,296.379997 364.400003,295.585005 363.74,294.535 C363.079997,293.484995 362.630001,292.150008 362.39,290.53 C362.149999,288.909992 362.03,287.020011 362.03,284.86 C362.03,283.059991 362.06,281.215009 362.12,279.325 C362.18,277.434991 362.21,275.620009 362.21,273.88 C362.21,271.89999 362.060001,269.93501 361.76,267.985 C361.459998,266.03499 361.010003,264.265008 360.41,262.675 C359.809997,261.084992 359.045005,259.795005 358.115,258.805 C357.184995,257.814995 356.060007,257.32 354.74,257.32 C354.139997,257.32 353.615002,257.559998 353.165,258.04 C352.714998,258.520002 352.325002,259.119996 351.995,259.84 C351.664998,260.560004 351.410001,261.354996 351.23,262.225 C351.049999,263.095004 350.96,263.949996 350.96,264.79 C350.96,265.210002 350.975,265.779996 351.005,266.5 L351.095,268.66 C351.125,269.380004 351.155,270.024997 351.185,270.595 C351.215,271.165003 351.23,271.539999 351.23,271.72 C351.23,272.200002 351.215,273.039994 351.185,274.24 C351.155,275.440006 351.14,276.819992 351.14,278.38 C351.14,280.000008 351.185,281.679991 351.275,283.42 C351.365,285.160009 351.559999,286.779992 351.86,288.28 C352.160002,289.780008 352.579997,291.009995 353.12,291.97 C353.660003,292.930005 354.379996,293.41 355.28,293.41 C355.760002,293.41 356.149998,293.290001 356.45,293.05 C356.51,293.350002 356.555,293.664998 356.585,293.995 C356.615,294.325002 356.63,294.669998 356.63,295.03 C356.63,295.510002 356.615,295.959998 356.585,296.38 C356.555,296.800002 356.51,297.249998 356.45,297.73 C353.209984,297.910001 349.940016,298 346.64,298 C343.279983,298 339.950017,297.910001 336.65,297.73 C337.010002,296.649995 337.19,294.970011 337.19,292.69 C338.750008,292.69 339.904996,292.060006 340.655,290.8 C341.405004,289.539994 341.78,287.470014 341.78,284.59 L341.78,281.35 C341.78,276.969978 341.645001,273.250015 341.375,270.19 C341.104999,267.129985 340.685003,264.64001 340.115,262.72 C339.544997,260.79999 338.780005,259.420004 337.82,258.58 C336.859995,257.739996 335.690007,257.32 334.31,257.32 C333.289995,257.32 332.405004,257.724996 331.655,258.535 C330.904996,259.345004 330.53,260.229995 330.53,261.19 C330.349999,269.350041 330.23,275.42498 330.17,279.415 C330.11,283.40502 330.08,285.459999 330.08,285.58 C330.08,290.380024 331.009991,292.78 332.87,292.78 C333.290002,292.78 333.559999,292.75 333.68,292.69 C333.68,293.890006 333.739999,294.879996 333.86,295.66 C333.980001,296.440004 334.099999,297.249996 334.22,298.09 C331.939989,298.03 330.110007,297.985 328.73,297.955 C327.349993,297.925 326.180005,297.895 325.22,297.865 C324.259995,297.835 323.435003,297.805 322.745,297.775 C322.054997,297.745 321.320004,297.73 320.54,297.73 C319.039993,297.73 317.735006,297.76 316.625,297.82 C315.514994,297.88 314.600004,297.969999 313.88,298.09 Z M390.75,272.71 C390.629999,274.210008 390.54,275.469995 390.48,276.49 C390.42,277.510005 390.39,278.289997 390.39,278.83 C390.39,288.91005 392.669977,293.95 397.23,293.95 C400.710017,293.95 403.769987,291.070029 406.41,285.31 C406.710002,285.25 407.024998,285.205 407.355,285.175 C407.685002,285.145 407.999999,285.13 408.3,285.13 C408.600002,285.13 408.884999,285.145 409.155,285.175 C409.425001,285.205 409.709998,285.25 410.01,285.31 C408.02999,294.190044 403.230038,298.63 395.61,298.63 C385.409949,298.63 380.31,289.810088 380.31,272.17 C380.31,269.109985 380.699996,266.275013 381.48,263.665 C382.260004,261.054987 383.369993,258.805009 384.81,256.915 C386.250007,255.024991 387.98999,253.540005 390.03,252.46 C392.07001,251.379995 394.379987,250.84 396.96,250.84 C401.640023,250.84 405.269987,252.264986 407.85,255.115 C410.430013,257.965014 411.72,261.819976 411.72,266.68 C411.72,269.680015 411.420003,271.689995 410.82,272.71 L390.75,272.71 Z M391.02,266.95 L402.9,266.95 C403.020001,266.589998 403.08,266.215002 403.08,265.825 L403.08,264.79 C403.08,257.889966 401.13002,254.44 397.23,254.44 C396.449996,254.44 395.685004,254.784997 394.935,255.475 C394.184996,256.165003 393.525003,257.019995 392.955,258.04 C392.384997,259.060005 391.920002,260.154994 391.56,261.325 C391.199998,262.495006 391.02,263.589995 391.02,264.61 L391.02,266.95 Z M435.65,297.64 C433.60999,297.58 431.58501,297.535 429.575,297.505 C427.56499,297.475 425.54001,297.46 423.5,297.46 C421.819992,297.46 420.155008,297.475 418.505,297.505 C416.854992,297.535 415.190008,297.58 413.51,297.64 C413.51,297.279998 413.525,296.905002 413.555,296.515 C413.585,296.124998 413.6,295.690002 413.6,295.21 C413.6,294.789998 413.585,294.385002 413.555,293.995 C413.525,293.604998 413.51,293.170002 413.51,292.69 C414.050003,292.63 414.679996,292.555 415.4,292.465 C416.120004,292.375 416.779997,292.180002 417.38,291.88 C417.980003,291.579998 418.489998,291.130003 418.91,290.53 C419.330002,289.929997 419.54,289.060006 419.54,287.92 C419.54,287.559998 419.51,287.035003 419.45,286.345 C419.39,285.654997 419.345,284.935004 419.315,284.185 C419.285,283.434996 419.24,282.715003 419.18,282.025 C419.12,281.334997 419.09,280.810002 419.09,280.45 C419.09,279.429995 419.164999,277.90001 419.315,275.86 C419.465001,273.81999 419.614999,271.735011 419.765,269.605 C419.915001,267.474989 420.064999,265.555009 420.215,263.845 C420.365001,262.134991 420.44,261.130001 420.44,260.83 C420.44,259.989996 419.900005,259.180004 418.82,258.4 C417.739995,257.619996 416.420008,257.23 414.86,257.23 L414.86,256.42 C414.86,255.759997 414.815,255.220002 414.725,254.8 C414.635,254.379998 414.530001,254.020002 414.41,253.72 C416.270009,253.179997 418.564986,252.565003 421.295,251.875 C424.025014,251.184997 427.279981,250.390005 431.06,249.49 C431,249.970002 430.925,250.524997 430.835,251.155 C430.745,251.785003 430.7,252.429997 430.7,253.09 C430.7,253.870004 430.789999,254.529997 430.97,255.07 C433.130011,252.249986 435.409988,250.84 437.81,250.84 C439.130007,250.84 440.554992,251.394994 442.085,252.505 C443.615008,253.615006 445.039993,254.994992 446.36,256.645 C447.680007,258.295008 448.789996,260.034991 449.69,261.865 C450.590005,263.695009 451.04,265.329993 451.04,266.77 L451.04,286.48 C451.04,288.040008 451.174999,289.389994 451.445,290.53 C451.715001,291.670006 452.179997,292.24 452.84,292.24 C453.320002,292.24 453.724998,291.955003 454.055,291.385 C454.385002,290.814997 454.55,290.200003 454.55,289.54 C454.55,289.239999 454.52,288.805003 454.46,288.235 C454.4,287.664997 454.37,287.230002 454.37,286.93 L454.37,286.12 C454.970003,286.300001 455.659996,286.39 456.44,286.39 C457.100003,286.39 457.789996,286.300001 458.51,286.12 L458.51,290.08 C458.51,292.240011 457.730008,294.054993 456.17,295.525 C454.609992,296.995007 452.750011,297.73 450.59,297.73 C444.349969,297.73 441.23,294.820029 441.23,289 L441.23,270.64 C441.23,268.959992 441.050002,267.310008 440.69,265.69 C440.329998,264.069992 439.820003,262.645006 439.16,261.415 C438.499997,260.184994 437.720005,259.195004 436.82,258.445 C435.919996,257.694996 434.930005,257.32 433.85,257.32 C432.889995,257.32 432.035004,257.724996 431.285,258.535 C430.534996,259.345004 430.16,260.229995 430.16,261.19 C429.799998,277.570082 429.62,285.969998 429.62,286.39 C429.62,290.950023 431.269984,293.23 434.57,293.23 C435.110003,293.23 435.469999,293.170001 435.65,293.05 C435.59,293.530002 435.56,293.964998 435.56,294.355 L435.56,296.65 C435.56,297.010002 435.59,297.339998 435.65,297.64 Z M472.45,257.77 C472.329999,260.530014 472.27,263.259986 472.27,265.96 L472.27,274.06 C472.27,276.760014 472.3,279.429987 472.36,282.07 C472.42,284.710013 472.45,287.379986 472.45,290.08 C472.45,291.640008 472.989995,292.42 474.07,292.42 C475.030005,292.42 475.599999,292.030004 475.78,291.25 C475.960001,290.469996 476.05,289.600005 476.05,288.64 C476.05,288.159998 476.035,287.740002 476.005,287.38 C475.975,287.019998 475.93,286.600002 475.87,286.12 C476.170002,286.06 476.499998,286.015 476.86,285.985 C477.220002,285.955 477.549999,285.94 477.85,285.94 C478.210002,285.94 478.554998,285.955 478.885,285.985 C479.215002,286.015 479.559998,286.06 479.92,286.12 C479.98,286.540002 480.01,286.929998 480.01,287.29 L480.01,288.46 C480.01,289.660006 479.905001,290.829994 479.695,291.97 C479.484999,293.110006 479.095003,294.144995 478.525,295.075 C477.954997,296.005005 477.205005,296.754997 476.275,297.325 C475.344995,297.895003 474.160007,298.18 472.72,298.18 C470.439989,298.18 468.625007,297.745004 467.275,296.875 C465.924993,296.004996 464.890004,294.835007 464.17,293.365 C463.449996,291.894993 462.985001,290.15501 462.775,288.145 C462.564999,286.13499 462.46,283.990011 462.46,281.71 C462.46,277.929981 462.49,274.06002 462.55,270.1 C462.61,266.13998 462.699999,262.15002 462.82,258.13 C462.159997,257.889999 461.545003,257.74 460.975,257.68 C460.404997,257.62 459.820003,257.59 459.22,257.59 L458.095,257.59 C457.704998,257.59 457.270002,257.62 456.79,257.68 C456.79,257.559999 456.82,257.260002 456.88,256.78 C456.94,256.299998 457,255.790003 457.06,255.25 C457.12,254.709997 457.195,254.230002 457.285,253.81 C457.375,253.389998 457.479999,253.18 457.6,253.18 C459.64001,253.18 461.439992,252.790004 463,252.01 C464.560008,251.229996 465.879995,250.150007 466.96,248.77 C468.040005,247.389993 468.864997,245.74001 469.435,243.82 C470.005003,241.89999 470.29,239.770012 470.29,237.43 C470.830003,237.43 471.384997,237.445 471.955,237.475 C472.525003,237.505 473.049998,237.55 473.53,237.61 C473.710001,239.770011 473.8,241.929989 473.8,244.09 C473.8,246.850014 473.710001,249.429988 473.53,251.83 C474.190003,251.950001 474.969996,252.069999 475.87,252.19 C476.770005,252.310001 477.819994,252.489999 479.02,252.73 C478.96,253.210002 478.93,253.674998 478.93,254.125 L478.93,256.645 C478.93,257.035002 478.96,257.409998 479.02,257.77 C478.479997,257.71 477.940003,257.665 477.4,257.635 C476.859997,257.605 476.290003,257.59 475.69,257.59 C475.149997,257.59 474.610003,257.605 474.07,257.635 C473.529997,257.665 472.990003,257.71 472.45,257.77 Z" id="Edutainment" fill="#FFFFFF"></path>
        </g>
    </g>
</svg>