<svg width="510px" height="510px" viewBox="0 0 510 510" xmlns="http://www.w3.org/2000/svg" xmlns:xlink="http://www.w3.org/1999/xlink"><defs><linearGradient x1="23.2429412%" y1="9.50670588%" x2="83.1758431%" y2="100.207314%" id="a"><stop stop-color="#F1D200" offset="0.5128205%"/><stop stop-color="#D27D00" offset="100%"/></linearGradient></defs><g fill-rule="nonzero" fill="none"><circle fill="#FFF" cx="255" cy="255" r="223.4"/><path d="M255 0C114.2 0 0 114.2 0 255s114.2 255 255 255 255-114.2 255-255S395.8 0 255 0zm0 451.3c-108.4 0-196.3-87.9-196.3-196.3S146.6 58.7 255 58.7 451.3 146.6 451.3 255 363.4 451.3 255 451.3z" fill="url(#a)"/><path d="M170 342.2l9.8-19.6h117.7c16.2 0 29.4-13.2 29.4-29.4s-13.2-29.4-29.4-29.4h-98.1v-19.6h98.1c27.1 0 49 22 49 49 0 27.1-22 49-49 49H170z" fill="#132365"/><path d="M297.5 347.6H161.2l15.3-30.5h121.1c13.2 0 24-10.8 24-24s-10.8-24-24-24H194v-30.5h103.5c30 0 54.5 24.4 54.5 54.5s-24.5 54.5-54.5 54.5zm-118.7-10.9h118.7c24 0 43.6-19.6 43.6-43.6s-19.6-43.6-43.6-43.6h-92.6v8.7h92.6c19.2 0 34.9 15.6 34.9 34.9 0 19.2-15.6 34.9-34.9 34.9H183.2l-4.4 8.7z" fill="#132365"/><path d="M170 164.6l9.8 19.6h104.6c16.2 0 29.4 13.2 29.4 29.4S300.6 243 284.4 243h-75.2v19.6h75.2c27.1 0 49-22 49-49 0-27.1-22-49-49-49H170z" fill="#132365"/><path d="M284.4 268.1h-80.6v-30.5h80.6c13.2 0 24-10.8 24-24s-10.8-24-24-24h-108l-15.3-30.5h123.2c30 0 54.5 24.4 54.5 54.5.1 30-24.3 54.5-54.4 54.5zm-69.7-10.9h69.7c24 0 43.6-19.6 43.6-43.6S308.5 170 284.4 170H178.8l4.4 8.7h101.2c19.2 0 34.9 15.6 34.9 34.9 0 19.3-15.6 34.9-34.9 34.9h-69.7v8.7z" fill="#132365"/><path fill="#132365" d="M199.4 165.6H219v176.5h-19.6z"/><path d="M224.5 347.6H194V160.2h30.5v187.4zm-19.6-10.9h8.7V171.1h-8.7v165.6z" fill="#132365"/><path fill="#132365" d="M223.4 135.1H243v39.2h-19.6z"/><path d="M245.7 177.1h-25.1v-44.7h25.1v44.7zm-19.6-5.5h14.2v-33.8h-14.2v33.8z" fill="#132365"/><g fill="#132365"><path d="M265.9 135.1h19.6v39.2h-19.6z"/><path d="M288.2 177.1h-25.1v-44.7h25.1v44.7zm-19.6-5.5h14.2v-33.8h-14.2v33.8z"/></g><g fill="#132365"><path d="M223.4 331.3H243v39.2h-19.6z"/><path d="M245.7 373.2h-25.1v-44.7h25.1v44.7zm-19.6-5.4h14.2V334h-14.2v33.8z"/></g><g fill="#132365"><path d="M265.9 331.3h19.6v39.2h-19.6z"/><path d="M288.2 373.2h-25.1v-44.7h25.1v44.7zm-19.6-5.4h14.2V334h-14.2v33.8z"/></g><path d="M255 428.8c-95.8 0-173.8-77.9-173.8-173.8 0-95.8 77.9-173.8 173.8-173.8 95.8 0 173.8 77.9 173.8 173.8 0 95.8-78 173.8-173.8 173.8zm0-330.2c-86.2 0-156.4 70.2-156.4 156.4S168.8 411.4 255 411.4 411.4 341.2 411.4 255 341.2 98.6 255 98.6z" fill="#132365"/></g></svg>