<svg width="301px" height="232px" viewBox="0 0 301 232" xmlns="http://www.w3.org/2000/svg" xmlns:xlink="http://www.w3.org/1999/xlink"><g fill-rule="nonzero" fill="none"><path d="M132.88 144.06h74.22c27.614 0 50-22.386 50-50s-22.386-50-50-50h-23.65L132.88.16h74.22c44.918.006 83.544 31.816 92.162 75.9 8.618 44.083-15.184 88.098-56.792 105.02L301 231.86h-67l-101.12-87.8z" fill="#2ED8A3"/><path d="M169.12 87.95H94.9c-27.614 0-50 22.386-50 50s22.386 50 50 50h23.64l50.57 43.9H94.9c-44.92-.001-83.55-31.81-92.17-75.895C-5.893 111.87 17.91 67.853 59.52 50.93L1 .14h67l101.12 87.81z" fill="#2972FF"/></g></svg>